<svg xmlns="http://www.w3.org/2000/svg" id="Layer_1" data-name="Layer 1" viewBox="0 0 136 70">
    <defs>
        <style>
            .cls-1 {
                fill: #68c4e0;
            }

            .cls-2 {
                fill: #ffead7;
            }

            .cls-3,
            .cls-4,
            .cls-5,
            .cls-7 {
                fill: none;
            }

            .cls-3 {
                stroke: #ff8c3e;
            }

            .cls-3,
            .cls-4,
            .cls-5 {
                stroke-linecap: round;
                stroke-linejoin: round;
            }

            .cls-4 {
                stroke: #ffbf0d;
            }

            .cls-5 {
                stroke: #ef7598;
            }

            .cls-6 {
                fill: #3b54a4;
            }

            .cls-7 {
                stroke: #d42c35;
                stroke-miterlimit: 10;
                stroke-width: 0.3px;
            }
        </style>
    </defs>
    <g xmlns="http://www.w3.org/2000/svg" id="logo_heading" data-name="logo heading">
        <path class="cls-1"
            d="M108.73,22a24.15,24.15,0,0,0-4.92.5c-1-10.27-11.07-18.33-23.31-18.33C69.7,4.17,60.62,10.43,57.92,19a15.3,15.3,0,0,0-9-2.9c-7.91,0-14.36,5.89-14.81,13.3a15.62,15.62,0,0,0-4.51-.67c-8.2,0-14.86,6.32-14.86,14.12S21.4,56.92,29.6,56.92c.21,0,.41,0,.62,0,2.05,6,9,10.43,17.22,10.43,7,0,13.05-3.2,16-7.84,2.92,4.64,9,7.84,16,7.84a19.59,19.59,0,0,0,14.45-5.84,24.07,24.07,0,0,0,14.9,5.1c12.93,0,23.41-10,23.41-22.29S121.66,22,108.73,22Z" />
        <path class="cls-2"
            d="M105,20.51a24.8,24.8,0,0,0-4.92.5C99.07,10.74,89,2.68,76.78,2.68,66,2.68,56.9,9,54.2,17.47a15.29,15.29,0,0,0-9-2.9c-7.92,0-14.37,5.88-14.82,13.29a15.5,15.5,0,0,0-4.5-.66C17.68,27.2,11,33.52,11,41.32s6.65,14.11,14.86,14.11c.21,0,.41,0,.62,0,2,6,9,10.43,17.21,10.43,7,0,13.06-3.19,16-7.84,2.92,4.65,9,7.84,16,7.84A19.61,19.61,0,0,0,90.12,60a24,24,0,0,0,14.9,5.1c12.92,0,23.4-10,23.4-22.29S117.94,20.51,105,20.51Z" />
        <path class="cls-3"
            d="M114.65,19.39l-.17-.83a.53.53,0,0,1,.38-.63l.86-.23a.54.54,0,0,0,.35-.74l-.17-.37a.54.54,0,0,1,.44-.76l.64-.06a.54.54,0,0,0,.46-.72l-.29-.76a.54.54,0,0,1,.42-.72h0a.54.54,0,0,0,.41-.75l-.35-.77" />
        <path class="cls-4"
            d="M123.29,17.1l.25,1.21a.55.55,0,0,1-.84.24l-.51-.38a.55.55,0,0,0-.88.4l0,.68a.54.54,0,0,1-.72.48l-.94-.32a.54.54,0,0,0-.72.59l.12.93" />
        <path class="cls-5"
            d="M107.43,13.27l1.23,0a.54.54,0,0,1,0,.87l-.48.41a.56.56,0,0,0,.19.95l.66.2a.55.55,0,0,1,.31.81l-.53.84a.55.55,0,0,0,.42.84l.93.08" />
        <path class="cls-3"
            d="M12.75,28.59l-.81-.26a.52.52,0,0,1-.35-.64l.22-.86a.54.54,0,0,0-.48-.67l-.4,0a.55.55,0,0,1-.44-.76l.27-.59a.54.54,0,0,0-.41-.75l-.8-.13a.54.54,0,0,1-.42-.72h0a.53.53,0,0,0-.45-.72l-.84-.08" />
        <path class="cls-4"
            d="M15,20l1.17.38a.55.55,0,0,1-.21.85l-.58.25a.55.55,0,0,0-.08,1l.56.38a.55.55,0,0,1,.06.87l-.74.66a.55.55,0,0,0,.16.92l.87.35" />
        <path class="cls-5"
            d="M3.86,31.85l.63-1.06a.54.54,0,0,1,.78.39l.12.62a.55.55,0,0,0,.92.29l.5-.47a.55.55,0,0,1,.86.14l.47.87a.54.54,0,0,0,.93,0l.54-.77" />
    </g>
    <svg xmlns="http://www.w3.org/2000/svg" xmlns:xlink="http://www.w3.org/1999/xlink" class="variation-svg"
        viewBox="43.51842944335938 90.49000549316406 487.963134765625 396" style="transform: scale(1);">
        <g><svg xmlns="http://www.w3.org/2000/svg" data-layer-type="icon" id="Layer_1" dataName="Layer 1"
                viewBox="12.882930755615234 23.830190658569336 173.49417114257812 84.26984405517578"
                height="169.01317132321824" width="347.963134765625" y="160.49000549316406" x="113.51842944335938"
                preserveAspectRatio="xMinYMin" style="position: absolute;">
                <path
                    d="M182.19,93.56,103.11,53.67a7.91,7.91,0,0,0-2-.67l-.49-5a8,8,0,0,0-.17-1.85l0-.11a1.36,1.36,0,0,0-.12-.45,18,18,0,0,0-2.92-5.75l-.34-.47c-1.46-2-2.85-4-2.88-6.22a6.29,6.29,0,0,1,3-5.46,5.54,5.54,0,0,1,6.05.06,8.76,8.76,0,0,1,3.95,7.84,1.5,1.5,0,0,0,3,.23,11.93,11.93,0,0,0-5.36-10.62,8.61,8.61,0,0,0-9.16-.1,9.36,9.36,0,0,0-4.49,8.09c0,3.21,1.85,5.71,3.45,7.93l.33.46a15,15,0,0,1,2.52,5l.62,6.4a7.11,7.11,0,0,0-1.93.66L17.11,93.56a7.68,7.68,0,0,0,3.46,14.54H47.71a1.5,1.5,0,0,0,1.5-1.5V93.52l11.56.35V106.6a1.5,1.5,0,0,0,1.5,1.5h5.78a1.48,1.48,0,0,0,.93-.32,7.16,7.16,0,0,0,2.72-5.62V78.55h12v18a1.5,1.5,0,0,0,1.5,1.5,1.33,1.33,0,0,0,.45-.07h2.76a6.43,6.43,0,0,0,6.42-6.41V86.89h4.58a1.2,1.2,0,0,0,.42-.07h2.22a1.25,1.25,0,0,0,.43.07h4.58v4.73A6.42,6.42,0,0,0,113.48,98h1.33v8.57a1.5,1.5,0,0,0,1.5,1.5h6.82a1.5,1.5,0,0,0,1.5-1.5V84.5l11,8.23V106.6a1.5,1.5,0,0,0,1.5,1.5h9.45a1.5,1.5,0,0,0,1.5-1.5v-6.48h4.54v6.48a1.5,1.5,0,0,0,1.5,1.5h24.57a7.68,7.68,0,0,0,3.46-14.54Zm1.09,7.94a4.56,4.56,0,0,1-4.55,3.6H155.66V98.62a1.5,1.5,0,0,0-1.5-1.5h-7.54a1.5,1.5,0,0,0-1.5,1.5v6.48h-6.45V92a1.48,1.48,0,0,0-.6-1.2L124,80.31a1.5,1.5,0,0,0-2.39,1.2V105.1h-3.82V96.6A1.62,1.62,0,0,0,116.24,95h-2.76a3.41,3.41,0,0,1-3.41-3.41V85.46a1.62,1.62,0,0,0-1.57-1.57h-5.64a1.62,1.62,0,0,0-.44-.07H99.49a1.5,1.5,0,0,0-.44.07H93.41a1.62,1.62,0,0,0-1.57,1.57v6.16A3.42,3.42,0,0,1,88.42,95H86.71v-18a1.5,1.5,0,0,0-1.5-1.5h-15a1.5,1.5,0,0,0-1.5,1.5v25.11a4.15,4.15,0,0,1-1.22,2.94H63.77V92.41a1.5,1.5,0,0,0-1.46-1.5l-14.56-.43a1.47,1.47,0,0,0-1.09.42A1.5,1.5,0,0,0,46.21,92V105.1H20.57a4.68,4.68,0,0,1-2.11-8.86l79.08-39.9a4.72,4.72,0,0,1,4.21,0l79.09,39.9A4.56,4.56,0,0,1,183.28,101.5Z"
                    style="fill: rgb(43, 69, 112); fill-opacity: 1;" />
            </svg></g>

        <g><svg xmlns="http://www.w3.org/2000/svg" data-layer-type="text" y="350"
                viewBox="1.0800000429153442 8.029999732971191 91.91999816894531 26.060001373291016" x="247"
                height="26.060001373291016" width="91.91999816894531" style="position: absolute;">
                <g data-horizontal-grow="center"
                    style="fill: rgb(43, 69, 112); font-size: 36px; font-weight: 500; font-style: normal; font-family: Ubuntu; text-transform: uppercase; letter-spacing: 0.222222em; fill-opacity: 1;">
                    <path
                        d="M9.04 30.17L9.04 30.17Q11.48 30.17 12.60 29.34Q13.72 28.51 13.72 27.00L13.72 27.00Q13.72 26.10 13.34 25.45Q12.96 24.80 12.26 24.28Q11.56 23.76 10.55 23.31Q9.54 22.86 8.24 22.43L8.24 22.43Q6.95 21.96 5.74 21.40Q4.54 20.84 3.62 20.02Q2.70 19.19 2.14 18.04Q1.58 16.88 1.58 15.26L1.58 15.26Q1.58 11.88 3.92 9.95Q6.26 8.03 10.30 8.03L10.30 8.03Q12.64 8.03 14.45 8.55Q16.27 9.07 17.32 9.68L17.32 9.68L15.91 13.36Q14.69 12.67 13.23 12.31Q11.77 11.95 10.22 11.95L10.22 11.95Q8.39 11.95 7.36 12.71Q6.34 13.46 6.34 14.83L6.34 14.83Q6.34 15.66 6.68 16.25Q7.02 16.85 7.65 17.32Q8.28 17.78 9.13 18.18Q9.97 18.58 10.98 18.94L10.98 18.94Q12.74 19.58 14.13 20.25Q15.52 20.92 16.47 21.83Q17.42 22.75 17.93 23.99Q18.43 25.24 18.43 27.00L18.43 27.00Q18.43 30.38 16.04 32.24Q13.64 34.09 9.04 34.09L9.04 34.09Q7.49 34.09 6.21 33.89Q4.93 33.70 3.94 33.41Q2.95 33.12 2.23 32.81Q1.51 32.51 1.08 32.26L1.08 32.26L2.41 28.55Q3.38 29.09 5.04 29.63Q6.70 30.17 9.04 30.17ZM28.99 26.93L28.99 26.93Q28.99 25.56 29.40 24.44Q29.82 23.33 30.52 22.43Q31.22 21.53 32.14 20.84Q33.06 20.16 34.06 19.62L34.06 19.62Q32.98 18.47 32.32 17.17Q31.65 15.88 31.65 14.44L31.65 14.44Q31.65 11.41 33.51 9.72Q35.36 8.03 38.38 8.03L38.38 8.03Q39.93 8.03 41.14 8.46Q42.34 8.89 43.14 9.65Q43.93 10.40 44.34 11.43Q44.76 12.46 44.76 13.61L44.76 13.61Q44.76 14.76 44.38 15.77Q44 16.78 43.35 17.62Q42.70 18.47 41.86 19.17Q41.01 19.87 40.04 20.41L40.04 20.41L44.97 25.38Q45.48 24.44 45.80 23.27Q46.12 22.10 46.30 20.99L46.30 20.99L49.94 21.46Q49.76 22.90 49.18 24.64Q48.61 26.39 47.67 27.97L47.67 27.97Q48.86 29.30 49.96 30.73Q51.06 32.15 51.78 33.55L51.78 33.55L47.24 33.55Q46.88 32.94 46.32 32.22Q45.76 31.50 45.15 30.89L45.15 30.89Q43.68 32.22 41.77 33.05Q39.86 33.88 37.45 33.88L37.45 33.88Q35.04 33.88 33.42 33.23Q31.80 32.58 30.81 31.57Q29.82 30.56 29.40 29.34Q28.99 28.12 28.99 26.93ZM33.16 26.64L33.16 26.64Q33.16 27.25 33.40 27.90Q33.63 28.55 34.15 29.11Q34.68 29.66 35.52 30.02Q36.37 30.38 37.56 30.38L37.56 30.38Q39.18 30.38 40.49 29.88Q41.80 29.38 42.74 28.44L42.74 28.44L36.40 22.00Q35.86 22.28 35.29 22.68Q34.71 23.08 34.24 23.63Q33.78 24.19 33.47 24.93Q33.16 25.67 33.16 26.64ZM40.98 13.79L40.98 13.79Q40.98 12.74 40.29 12.01Q39.61 11.27 38.31 11.27L38.31 11.27Q36.94 11.27 36.22 12.10Q35.50 12.92 35.50 14.18L35.50 14.18Q35.50 15.23 36.08 16.25Q36.66 17.28 37.66 18.22L37.66 18.22Q38.35 17.86 38.94 17.42Q39.54 16.99 39.99 16.45Q40.44 15.91 40.71 15.26Q40.98 14.62 40.98 13.79ZM75.15 11.41L79.04 11.41Q79.61 13.36 80.26 15.46Q80.91 17.57 81.61 19.67Q82.31 21.78 83.01 23.81Q83.72 25.85 84.36 27.65L84.36 27.65Q84.90 25.70 85.41 23.42Q85.91 21.13 86.42 18.67Q86.92 16.20 87.41 13.64Q87.89 11.09 88.32 8.60L88.32 8.60L93.00 8.60Q91.74 15.37 90.20 21.62Q88.65 27.86 86.74 33.55L86.74 33.55L82.42 33.55Q79.61 26.28 76.98 17.68L76.98 17.68Q75.65 22.03 74.28 25.96Q72.92 29.88 71.55 33.55L71.55 33.55L67.23 33.55Q65.28 27.86 63.75 21.62Q62.22 15.37 60.96 8.60L60.96 8.60L65.82 8.60Q66.26 11.05 66.74 13.61Q67.23 16.16 67.75 18.63Q68.27 21.10 68.81 23.40Q69.35 25.70 69.89 27.65L69.89 27.65Q70.58 25.81 71.28 23.78Q71.98 21.74 72.66 19.64Q73.35 17.53 73.98 15.44Q74.61 13.36 75.15 11.41L75.15 11.41Z"
                        transform="translate(0, 0)" />
                </g>
            </svg></g>


        <g><svg xmlns="http://www.w3.org/2000/svg" data-layer-type="text" y="385"
                viewBox="0.3400000035762787 3 205.40000915527344 15" x="185" height="15" width="205.40000915527344"
                style="position: absolute;">
                <g data-horizontal-grow="center"
                    style="fill: rgb(0, 0, 0); font-size: 15px; font-weight: 400; font-style: normal; font-family: Dancing Script;; text-transform: none; letter-spacing: 0.333333em; fill-opacity: 1;">
                    <path
                        d="M3.82 16.60L3.82 16.60Q2.97 16.60 2.36 16.24Q1.75 15.88 1.75 15.19L1.75 15.19Q1.75 14.80 1.97 14.51Q2.19 14.22 2.65 14.07L2.65 14.07Q2.59 14.29 2.56 14.50Q2.53 14.71 2.53 14.88L2.53 14.88Q2.53 15.49 2.86 15.86Q3.19 16.23 3.84 16.23L3.84 16.23Q4.44 16.23 4.91 15.93Q5.38 15.63 5.73 15.14Q6.08 14.65 6.31 14.08Q6.55 13.51 6.72 12.96Q6.88 12.40 6.97 11.98L6.97 11.98Q7.09 11.47 7.25 10.66Q7.41 9.84 7.60 8.91L7.60 8.91Q7.00 10.05 6.22 10.79Q5.43 11.53 4.35 11.53L4.35 11.53Q3.46 11.53 3.09 11.03Q2.71 10.53 2.71 9.75L2.71 9.75Q2.71 9.16 2.87 8.47Q3.03 7.78 3.23 7.09Q3.42 6.39 3.58 5.74Q3.73 5.10 3.73 4.59L3.73 4.59Q3.73 4.11 3.55 3.76Q3.36 3.42 2.88 3.42L2.88 3.42Q2.46 3.42 2.16 3.68Q1.86 3.94 1.66 4.35Q1.45 4.75 1.36 5.20Q1.26 5.64 1.26 6.01L1.26 6.01Q1.26 6.22 1.29 6.42Q1.32 6.61 1.38 6.75L1.38 6.75Q0.81 6.75 0.58 6.44Q0.34 6.13 0.34 5.71L0.34 5.71Q0.34 5.25 0.57 4.77Q0.79 4.29 1.19 3.89Q1.59 3.49 2.11 3.25Q2.63 3 3.21 3L3.21 3Q3.78 3 4.13 3.23Q4.47 3.46 4.62 3.81Q4.77 4.15 4.77 4.51L4.77 4.51Q4.77 4.93 4.61 5.56Q4.46 6.18 4.26 6.87L4.26 6.87Q4.06 7.54 3.92 8.22Q3.76 8.89 3.76 9.49L3.76 9.49Q3.76 10.14 4.01 10.54Q4.26 10.93 4.81 10.93L4.81 10.93Q5.34 10.93 5.80 10.60Q6.27 10.27 6.67 9.72Q7.08 9.16 7.41 8.50Q7.74 7.84 8.00 7.20L8.00 7.20Q8.19 6.39 8.41 5.63Q8.63 4.88 8.85 4.28Q9.07 3.69 9.31 3.34Q9.55 3 9.79 3L9.79 3Q9.95 3 10.19 3.13Q10.42 3.25 10.63 3.48L10.63 3.48Q10.32 3.97 10.09 4.42Q9.87 4.86 9.67 5.38Q9.46 5.91 9.25 6.62Q9.04 7.33 8.78 8.37Q8.52 9.40 8.16 10.89L8.16 10.89Q7.96 11.65 7.74 12.46Q7.51 13.27 7.19 14.01Q6.87 14.74 6.42 15.33Q5.97 15.91 5.33 16.26Q4.69 16.60 3.82 16.60ZM15.63 14.28L15.63 14.28Q14.99 14.28 14.72 13.88Q14.45 13.48 14.45 12.91L14.45 12.91Q14.45 12.45 14.60 11.95Q14.75 11.46 15.00 11.02Q15.24 10.59 15.55 10.32Q15.86 10.05 16.18 10.05L16.18 10.05Q16.25 10.05 16.33 10.07Q16.41 10.09 16.49 10.13L16.49 10.13Q16.36 10.24 16.17 10.57Q15.98 10.89 15.81 11.30Q15.65 11.71 15.54 12.12Q15.42 12.52 15.42 12.81L15.42 12.81Q15.42 13.26 15.57 13.46Q15.72 13.66 15.96 13.66L15.96 13.66Q16.28 13.66 16.71 13.33Q17.15 12.99 17.57 12.46L17.57 12.46Q17.15 12.12 16.92 11.56Q16.68 10.99 16.68 10.41L16.68 10.41Q16.68 9.91 16.86 9.48Q17.03 9.04 17.36 8.78Q17.69 8.52 18.16 8.52L18.16 8.52Q18.77 8.52 18.98 8.85Q19.19 9.18 19.19 9.67L19.19 9.67Q19.19 10.26 18.91 10.97Q18.62 11.68 18.18 12.34L18.18 12.34Q18.45 12.49 18.75 12.49L18.75 12.49Q18.99 12.49 19.29 12.40Q19.59 12.30 19.89 12.06Q20.18 11.82 20.36 11.41L20.36 11.41L20.54 11.56Q20.24 12.27 19.69 12.56Q19.14 12.85 18.65 12.85L18.65 12.85Q18.45 12.85 18.27 12.82Q18.09 12.78 17.93 12.70L17.93 12.70Q17.42 13.38 16.81 13.83Q16.20 14.28 15.63 14.28ZM17.84 12.07L17.84 12.07Q18.21 11.52 18.46 10.91Q18.71 10.30 18.71 9.76L18.71 9.76Q18.71 9.33 18.58 9.13Q18.45 8.92 18.26 8.92L18.26 8.92Q17.96 8.92 17.64 9.36Q17.33 9.79 17.33 10.45L17.33 10.45Q17.33 10.89 17.46 11.33Q17.59 11.77 17.84 12.07ZM26.20 14.25L26.20 14.25Q25.69 14.25 25.38 13.79Q25.07 13.33 25.07 12.73L25.07 12.73Q25.07 12.30 25.22 11.73Q25.36 11.16 25.57 10.60Q25.78 10.05 26.00 9.69Q26.23 9.33 26.39 9.33L26.39 9.33Q26.47 9.33 26.65 9.41Q26.83 9.49 26.95 9.63L26.95 9.63Q26.79 9.88 26.54 10.41Q26.30 10.93 26.13 11.53Q25.95 12.13 25.95 12.64L25.95 12.64Q25.95 12.76 25.97 13.01Q26.00 13.26 26.13 13.45Q26.24 13.65 26.48 13.65L26.48 13.65Q26.77 13.65 27.07 13.36Q27.37 13.06 27.68 12.60Q27.98 12.13 28.27 11.59Q28.55 11.05 28.80 10.56Q29.05 10.06 29.21 9.73L29.21 9.73Q29.30 9.75 29.48 9.79Q29.65 9.84 29.79 9.91Q29.93 9.99 29.93 10.13L29.93 10.13Q29.93 10.18 29.79 10.52Q29.63 10.86 29.43 11.35Q29.23 11.83 29.08 12.33Q28.93 12.82 28.93 13.20L28.93 13.20Q28.93 13.47 29.04 13.63Q29.16 13.80 29.42 13.80L29.42 13.80Q29.74 13.80 30.19 13.51Q30.64 13.23 31.10 12.68Q31.57 12.13 31.93 11.37L31.93 11.37L32.13 11.50Q31.81 12.31 31.30 12.94Q30.79 13.56 30.22 13.90Q29.65 14.25 29.11 14.25L29.11 14.25Q28.72 14.25 28.49 14.10Q28.25 13.95 28.16 13.69Q28.06 13.44 28.06 13.14L28.06 13.14Q28.06 12.96 28.09 12.77Q28.12 12.58 28.16 12.39L28.16 12.39Q27.89 12.88 27.58 13.31Q27.27 13.74 26.92 13.99Q26.57 14.25 26.20 14.25ZM39.24 14.19L39.24 14.19Q38.73 14.19 38.44 13.92Q38.14 13.65 38.14 13.21L38.14 13.21Q38.14 12.76 38.35 12.27Q38.56 11.77 38.77 11.29Q38.97 10.80 38.97 10.41L38.97 10.41Q38.97 9.93 38.69 9.70Q38.41 9.46 38.13 9.27L38.13 9.27Q37.78 10.15 37.41 10.95Q37.03 11.74 36.79 12.15L36.79 12.15L36.66 11.89Q36.87 11.50 37.21 10.75Q37.54 10.00 37.87 9.04L37.87 9.04Q37.72 8.89 37.72 8.68L37.72 8.68Q37.72 8.23 37.98 7.95Q38.23 7.66 38.35 7.66L38.35 7.66Q38.52 7.66 38.54 7.81Q38.56 7.95 38.56 8.02L38.56 8.02Q38.56 8.10 38.48 8.32Q38.40 8.54 38.40 8.58L38.40 8.58Q38.40 8.79 38.63 8.96Q38.86 9.13 39.16 9.35Q39.46 9.57 39.70 9.88Q39.93 10.18 39.93 10.66L39.93 10.66Q39.93 11.11 39.74 11.58Q39.55 12.04 39.37 12.46Q39.18 12.88 39.18 13.20L39.18 13.20Q39.18 13.47 39.31 13.56Q39.45 13.65 39.63 13.65L39.63 13.65Q39.99 13.65 40.37 13.42Q40.75 13.20 41.11 12.85Q41.47 12.51 41.76 12.13Q42.04 11.74 42.18 11.41L42.18 11.41L42.37 11.56Q42.09 12.19 41.59 12.80Q41.10 13.41 40.49 13.80Q39.88 14.19 39.24 14.19ZM57.01 14.25L57.01 14.25Q56.36 14.25 56.09 13.81Q55.81 13.36 55.81 12.70L55.81 12.70Q55.81 11.98 56.08 10.99Q56.35 10.00 56.79 8.91Q57.23 7.81 57.76 6.77Q58.28 5.73 58.81 4.88Q59.33 4.02 59.78 3.51Q60.22 3 60.47 3L60.47 3Q60.64 3 60.74 3.19Q60.85 3.38 60.91 3.64Q60.97 3.90 60.97 4.11L60.97 4.11Q60.97 4.51 60.77 5.17Q60.56 5.82 60.20 6.62Q59.83 7.42 59.33 8.24Q58.82 9.06 58.23 9.81Q57.64 10.56 56.98 11.10L56.98 11.10Q56.89 11.50 56.84 11.89Q56.78 12.27 56.78 12.61L56.78 12.61Q56.78 13.20 56.95 13.48Q57.11 13.77 57.44 13.77L57.44 13.77Q57.85 13.77 58.25 13.41Q58.64 13.05 59.00 12.50Q59.35 11.95 59.60 11.37L59.60 11.37L59.83 11.49Q59.23 12.76 58.52 13.51Q57.82 14.25 57.01 14.25ZM57.11 10.59L57.11 10.59Q57.64 10.06 58.13 9.38Q58.63 8.70 59.06 7.96Q59.48 7.23 59.81 6.54Q60.14 5.85 60.32 5.30Q60.50 4.75 60.50 4.46L60.50 4.46Q60.50 4.30 60.47 4.26Q60.43 4.21 60.40 4.21L60.40 4.21Q60.28 4.21 59.99 4.60Q59.69 4.98 59.30 5.63Q58.91 6.27 58.51 7.09Q58.10 7.92 57.74 8.82Q57.37 9.72 57.11 10.59ZM65.38 14.19L65.38 14.19Q64.80 14.19 64.51 13.82Q64.23 13.45 64.23 12.93L64.23 12.93Q64.23 12.58 64.36 12.06Q64.48 11.53 64.69 10.96Q64.90 10.38 65.18 9.87Q65.46 9.36 65.77 9.04Q66.09 8.71 66.39 8.71L66.39 8.71Q66.52 8.71 66.62 8.80Q66.72 8.88 66.72 9.04L66.72 9.04Q66.72 9.22 66.49 9.63Q66.25 10.04 65.94 10.56Q65.62 11.08 65.39 11.66Q65.16 12.24 65.16 12.76L65.16 12.76Q65.16 13.30 65.34 13.48Q65.52 13.66 65.89 13.66L65.89 13.66Q66.40 13.66 66.98 13.15Q67.56 12.64 68.20 11.37L68.20 11.37L68.34 11.52Q67.90 12.81 67.09 13.50Q66.27 14.19 65.38 14.19ZM67.18 7.32L67.18 7.32Q66.94 7.32 66.76 7.20Q66.57 7.08 66.57 6.82L66.57 6.82Q66.57 6.51 66.94 6.28Q67.30 6.04 67.66 6.04L67.66 6.04Q67.89 6.04 68.02 6.15Q68.16 6.25 68.16 6.51L68.16 6.51Q68.16 6.79 67.85 7.06Q67.54 7.32 67.18 7.32ZM72.72 18L72.72 18Q72.57 18 72.38 17.90Q72.18 17.80 72.04 17.52Q71.90 17.23 71.90 16.68L71.90 16.68Q71.90 16.02 72.12 14.96Q72.35 13.90 72.74 12.63Q73.13 11.35 73.64 10.01Q74.15 8.67 74.74 7.42Q75.33 6.16 75.96 5.17Q76.58 4.17 77.18 3.58Q77.78 3 78.32 3L78.32 3Q78.63 3 78.73 3.19Q78.83 3.39 78.83 3.66L78.83 3.66Q78.83 4.30 78.48 5.07Q78.12 5.83 77.54 6.61Q76.95 7.38 76.25 8.08Q75.54 8.77 74.82 9.27L74.82 9.27Q74.75 9.45 74.68 9.64Q74.61 9.82 74.54 10.02L74.54 10.02Q74.70 10.05 74.80 10.19Q74.90 10.33 74.91 10.50L74.91 10.50Q75.02 11.17 75.14 11.71Q75.26 12.24 75.51 12.54Q75.75 12.84 76.22 12.84L76.22 12.84Q76.74 12.84 77.10 12.46Q77.46 12.07 77.88 11.37L77.88 11.37L78.11 11.52Q77.73 12.42 77.16 12.82Q76.58 13.23 76.14 13.23L76.14 13.23Q75.87 13.23 75.58 13.09Q75.29 12.96 75.03 12.73L75.03 12.73Q75.03 13.68 74.83 14.61Q74.63 15.54 74.30 16.30Q73.97 17.07 73.56 17.54Q73.16 18 72.72 18ZM73.11 17.28L73.11 17.28Q73.28 17.28 73.49 16.98Q73.70 16.68 73.90 16.19Q74.10 15.70 74.27 15.12Q74.43 14.53 74.54 13.95Q74.64 13.36 74.64 12.90L74.64 12.90Q74.64 12.43 74.52 12.05Q74.40 11.67 74.13 11.14L74.13 11.14Q73.76 12.27 73.46 13.32Q73.16 14.37 72.99 15.21Q72.83 16.05 72.83 16.56L72.83 16.56Q72.83 17.28 73.11 17.28ZM75.06 8.65L75.06 8.65Q76.04 7.75 76.75 6.85Q77.46 5.94 77.85 5.23Q78.24 4.51 78.24 4.21L78.24 4.21Q78.24 4.00 78.03 4.00L78.03 4.00Q77.64 4.00 77.15 4.64Q76.65 5.28 76.11 6.33Q75.57 7.38 75.06 8.65ZM84.22 14.46L84.22 14.46Q83.30 14.46 82.85 13.96Q82.39 13.45 82.39 12.72L82.39 12.72Q82.39 12.04 82.73 11.29Q83.06 10.54 83.63 9.88Q84.19 9.22 84.86 8.81Q85.54 8.40 86.20 8.40L86.20 8.40Q86.54 8.40 86.84 8.58Q87.13 8.76 87.13 9.31L87.13 9.31Q87.13 9.88 86.79 10.39Q86.45 10.89 85.91 11.28Q85.36 11.67 84.71 11.92Q84.05 12.16 83.41 12.22L83.41 12.22Q83.38 12.37 83.36 12.51Q83.35 12.64 83.35 12.76L83.35 12.76Q83.35 12.99 83.40 13.21Q83.45 13.44 83.59 13.63Q83.72 13.81 83.96 13.92Q84.19 14.02 84.53 14.02L84.53 14.02Q85.18 14.02 85.81 13.66Q86.44 13.29 86.98 12.69Q87.52 12.09 87.89 11.37L87.89 11.37L88.07 11.50Q87.67 12.40 87.05 13.06Q86.42 13.72 85.70 14.09Q84.97 14.46 84.22 14.46ZM83.48 11.94L83.48 11.94Q83.89 11.80 84.40 11.54Q84.91 11.28 85.38 10.92Q85.85 10.56 86.16 10.13Q86.47 9.69 86.47 9.21L86.47 9.21Q86.47 9.04 86.41 8.95Q86.35 8.86 86.16 8.86L86.16 8.86Q85.79 8.86 85.39 9.14Q84.98 9.42 84.61 9.87Q84.23 10.32 83.93 10.86Q83.63 11.40 83.48 11.94ZM92.70 15.12L92.70 15.12Q92.56 15.04 92.50 14.89Q92.44 14.74 92.44 14.56L92.44 14.56Q92.44 14.26 92.58 13.88Q92.72 13.50 92.92 13.23Q93.14 12.96 93.36 12.96L93.36 12.96Q93.51 12.96 93.62 13.09Q93.73 13.21 93.73 13.38L93.73 13.38Q93.31 13.81 93.11 14.25Q92.91 14.68 92.70 15.12ZM110.08 18L110.08 18Q109.70 18 109.42 17.80Q109.14 17.59 109.14 17.20L109.14 17.20Q109.14 16.72 109.38 16.35Q109.62 15.97 110.02 15.66Q110.42 15.34 110.95 15.06Q111.48 14.77 112.05 14.49L112.05 14.49Q112.25 13.93 112.47 13.25Q112.69 12.57 112.89 11.74L112.89 11.74Q112.41 12.52 111.86 13.09Q111.31 13.65 110.70 13.65L110.70 13.65Q110.41 13.65 110.13 13.52Q109.86 13.39 109.67 13.12Q109.50 12.85 109.50 12.43L109.50 12.43Q109.50 12.01 109.64 11.46Q109.78 10.90 109.99 10.38Q110.20 9.85 110.42 9.51Q110.65 9.16 110.81 9.16L110.81 9.16Q110.88 9.16 111.03 9.21Q111.19 9.25 111.33 9.34Q111.48 9.42 111.48 9.51L111.48 9.51Q111.34 9.70 111.17 10.06Q111.01 10.42 110.85 10.87Q110.70 11.31 110.59 11.73Q110.48 12.15 110.48 12.45L110.48 12.45Q110.48 12.72 110.61 12.88Q110.73 13.05 111.03 13.05L111.03 13.05Q111.31 13.05 111.66 12.77Q112.02 12.49 112.37 12.06Q112.72 11.63 113.02 11.13L113.02 11.13Q113.06 10.96 113.10 10.79Q113.14 10.62 113.17 10.44L113.17 10.44Q113.22 10.23 113.39 9.95Q113.56 9.67 113.94 9.67L113.94 9.67Q114.01 9.67 114.09 9.68Q114.16 9.69 114.25 9.72L114.25 9.72Q114.25 9.96 114.11 10.61Q113.97 11.26 113.70 12.13Q113.44 13.00 113.08 13.92L113.08 13.92Q113.78 13.65 114.46 13.03Q115.14 12.40 115.56 11.37L115.56 11.37L115.75 11.52Q115.53 12.24 115.07 12.77Q114.61 13.30 114.04 13.69Q113.47 14.07 112.92 14.32L112.92 14.32Q112.53 15.28 112.07 16.13Q111.61 16.96 111.11 17.48Q110.61 18 110.08 18ZM110.00 17.52L110.00 17.52Q110.23 17.52 110.76 16.93Q111.30 16.33 111.89 14.85L111.89 14.85Q111.28 15.18 110.75 15.50Q110.23 15.82 109.92 16.20Q109.60 16.57 109.60 17.07L109.60 17.07Q109.60 17.19 109.69 17.35Q109.78 17.52 110.00 17.52ZM121.30 14.28L121.30 14.28Q120.66 14.28 120.39 13.88Q120.12 13.48 120.12 12.91L120.12 12.91Q120.12 12.45 120.27 11.95Q120.42 11.46 120.67 11.02Q120.91 10.59 121.22 10.32Q121.53 10.05 121.84 10.05L121.84 10.05Q121.92 10.05 122.00 10.07Q122.08 10.09 122.16 10.13L122.16 10.13Q122.02 10.24 121.84 10.57Q121.65 10.89 121.48 11.30Q121.32 11.71 121.21 12.12Q121.09 12.52 121.09 12.81L121.09 12.81Q121.09 13.26 121.24 13.46Q121.39 13.66 121.63 13.66L121.63 13.66Q121.95 13.66 122.38 13.33Q122.82 12.99 123.24 12.46L123.24 12.46Q122.82 12.12 122.59 11.56Q122.35 10.99 122.35 10.41L122.35 10.41Q122.35 9.91 122.53 9.48Q122.70 9.04 123.03 8.78Q123.36 8.52 123.82 8.52L123.82 8.52Q124.44 8.52 124.65 8.85Q124.86 9.18 124.86 9.67L124.86 9.67Q124.86 10.26 124.57 10.97Q124.29 11.68 123.85 12.34L123.85 12.34Q124.13 12.49 124.42 12.49L124.42 12.49Q124.66 12.49 124.96 12.40Q125.27 12.30 125.56 12.06Q125.85 11.82 126.03 11.41L126.03 11.41L126.21 11.56Q125.91 12.27 125.36 12.56Q124.81 12.85 124.32 12.85L124.32 12.85Q124.13 12.85 123.94 12.82Q123.77 12.78 123.60 12.70L123.60 12.70Q123.09 13.38 122.48 13.83Q121.88 14.28 121.30 14.28ZM123.51 12.07L123.51 12.07Q123.88 11.52 124.13 10.91Q124.38 10.30 124.38 9.76L124.38 9.76Q124.38 9.33 124.25 9.13Q124.13 8.92 123.93 8.92L123.93 8.92Q123.63 8.92 123.31 9.36Q123 9.79 123 10.45L123 10.45Q123 10.89 123.13 11.33Q123.25 11.77 123.51 12.07ZM131.87 14.25L131.87 14.25Q131.36 14.25 131.05 13.79Q130.75 13.33 130.75 12.73L130.75 12.73Q130.75 12.30 130.89 11.73Q131.03 11.16 131.24 10.60Q131.45 10.05 131.68 9.69Q131.90 9.33 132.06 9.33L132.06 9.33Q132.14 9.33 132.32 9.41Q132.50 9.49 132.62 9.63L132.62 9.63Q132.46 9.88 132.22 10.41Q131.97 10.93 131.80 11.53Q131.62 12.13 131.62 12.64L131.62 12.64Q131.62 12.76 131.65 13.01Q131.68 13.26 131.80 13.45Q131.91 13.65 132.16 13.65L132.16 13.65Q132.44 13.65 132.74 13.36Q133.04 13.06 133.35 12.60Q133.66 12.13 133.94 11.59Q134.22 11.05 134.47 10.56Q134.72 10.06 134.88 9.73L134.88 9.73Q134.97 9.75 135.15 9.79Q135.32 9.84 135.46 9.91Q135.61 9.99 135.61 10.13L135.61 10.13Q135.61 10.18 135.46 10.52Q135.31 10.86 135.10 11.35Q134.90 11.83 134.75 12.33Q134.60 12.82 134.60 13.20L134.60 13.20Q134.60 13.47 134.71 13.63Q134.83 13.80 135.09 13.80L135.09 13.80Q135.41 13.80 135.86 13.51Q136.31 13.23 136.78 12.68Q137.24 12.13 137.60 11.37L137.60 11.37L137.80 11.50Q137.48 12.31 136.97 12.94Q136.46 13.56 135.89 13.90Q135.32 14.25 134.78 14.25L134.78 14.25Q134.39 14.25 134.16 14.10Q133.93 13.95 133.83 13.69Q133.73 13.44 133.73 13.14L133.73 13.14Q133.73 12.96 133.76 12.77Q133.79 12.58 133.84 12.39L133.84 12.39Q133.56 12.88 133.25 13.31Q132.94 13.74 132.59 13.99Q132.25 14.25 131.87 14.25ZM144.91 14.19L144.91 14.19Q144.40 14.19 144.11 13.92Q143.81 13.65 143.81 13.21L143.81 13.21Q143.81 12.76 144.03 12.27Q144.23 11.77 144.44 11.29Q144.64 10.80 144.64 10.41L144.64 10.41Q144.64 9.93 144.36 9.70Q144.09 9.46 143.80 9.27L143.80 9.27Q143.45 10.15 143.08 10.95Q142.70 11.74 142.47 12.15L142.47 12.15L142.33 11.89Q142.54 11.50 142.88 10.75Q143.22 10.00 143.54 9.04L143.54 9.04Q143.40 8.89 143.40 8.68L143.40 8.68Q143.40 8.23 143.65 7.95Q143.91 7.66 144.03 7.66L144.03 7.66Q144.19 7.66 144.21 7.81Q144.23 7.95 144.23 8.02L144.23 8.02Q144.23 8.10 144.15 8.32Q144.07 8.54 144.07 8.58L144.07 8.58Q144.07 8.79 144.30 8.96Q144.53 9.13 144.84 9.35Q145.13 9.57 145.37 9.88Q145.60 10.18 145.60 10.66L145.60 10.66Q145.60 11.11 145.41 11.58Q145.22 12.04 145.04 12.46Q144.85 12.88 144.85 13.20L144.85 13.20Q144.85 13.47 144.98 13.56Q145.12 13.65 145.30 13.65L145.30 13.65Q145.66 13.65 146.04 13.42Q146.43 13.20 146.78 12.85Q147.15 12.51 147.43 12.13Q147.72 11.74 147.85 11.41L147.85 11.41L148.04 11.56Q147.76 12.19 147.26 12.80Q146.77 13.41 146.16 13.80Q145.56 14.19 144.91 14.19ZM163.01 14.56L163.01 14.56Q162.31 14.56 161.89 14.26Q161.48 13.95 161.31 13.50Q161.13 13.05 161.13 12.60L161.13 12.60Q161.13 12.15 161.25 11.91Q161.38 11.67 161.55 11.55Q161.72 11.43 161.88 11.37Q162.03 11.31 162.09 11.25L162.09 11.25Q162.55 10.75 162.92 10.21Q163.30 9.67 163.58 9.07L163.58 9.07L163.58 8.89Q163.58 8.34 163.77 8.11Q163.96 7.87 164.16 7.87L164.16 7.87Q164.28 7.87 164.34 7.93Q164.41 7.99 164.41 8.07L164.41 8.07Q164.41 8.14 164.36 8.31Q164.31 8.47 164.31 8.73L164.31 8.73Q164.31 9.22 164.51 9.80Q164.71 10.38 164.90 11.02Q165.09 11.65 165.09 12.34L165.09 12.34Q165.09 12.54 165.07 12.73Q165.05 12.91 165.00 13.08L165.00 13.08Q165.53 12.99 166.00 12.61Q166.46 12.22 166.90 11.38L166.90 11.38L167.03 11.53Q166.75 12.36 166.18 12.79Q165.60 13.21 164.93 13.32L164.93 13.32Q164.69 13.96 164.17 14.26Q163.66 14.56 163.01 14.56ZM163.04 14.04L163.04 14.04Q163.22 14.04 163.52 13.92Q163.82 13.80 163.99 13.30L163.99 13.30Q163.35 13.18 162.87 12.81Q162.38 12.43 162.14 12.06L162.14 12.06Q161.81 12.07 161.81 12.58L161.81 12.58Q161.81 13.12 162.13 13.58Q162.46 14.04 163.04 14.04ZM164.06 13.06L164.06 13.06Q164.09 12.91 164.10 12.75Q164.12 12.58 164.12 12.36L164.12 12.36Q164.12 11.65 163.95 10.96Q163.78 10.26 163.66 9.64L163.66 9.64Q163.31 10.21 162.93 10.73Q162.55 11.25 162.20 11.59L162.20 11.59Q162.43 12.07 162.90 12.49Q163.37 12.91 164.06 13.06ZM172.89 14.49L172.89 14.49Q172.24 14.49 171.90 14.11Q171.55 13.74 171.55 13.00L171.55 13.00Q171.55 12.34 171.80 11.38Q172.05 10.41 172.42 9.39L172.42 9.39Q172.27 9.36 172.14 9.34Q172 9.31 171.88 9.27L171.88 9.27L171.88 9Q172 9.01 172.17 9.03Q172.33 9.04 172.54 9.06L172.54 9.06Q172.86 8.25 173.22 7.49Q173.58 6.73 173.93 6.14Q174.28 5.55 174.60 5.20Q174.93 4.84 175.15 4.84L175.15 4.84Q175.27 4.84 175.37 4.93Q175.47 5.01 175.47 5.17L175.47 5.17Q175.47 5.43 175.15 6.01Q174.84 6.58 174.37 7.38Q173.91 8.17 173.47 9.11L173.47 9.11Q173.61 9.11 173.75 9.11Q173.89 9.11 174.03 9.11L174.03 9.11Q174.52 9.11 175.07 9.09Q175.62 9.07 176.17 9.01L176.17 9.01L176.17 9.29Q175.35 9.38 174.69 9.42Q174.04 9.46 173.53 9.46L173.53 9.46Q173.47 9.46 173.42 9.46Q173.37 9.46 173.31 9.46L173.31 9.46Q172.96 10.26 172.72 11.10Q172.48 11.94 172.48 12.73L172.48 12.73Q172.48 13.38 172.68 13.66Q172.87 13.93 173.32 13.93L173.32 13.93Q174.10 13.93 174.85 13.24Q175.60 12.55 176.17 11.37L176.17 11.37L176.37 11.52Q176.01 12.36 175.46 13.03Q174.91 13.71 174.25 14.10Q173.59 14.49 172.89 14.49ZM181.53 18L181.53 18Q181.16 18 180.87 17.80Q180.59 17.59 180.59 17.20L180.59 17.20Q180.59 16.72 180.83 16.35Q181.07 15.97 181.47 15.66Q181.88 15.34 182.40 15.06Q182.93 14.77 183.50 14.49L183.50 14.49Q183.71 13.93 183.92 13.25Q184.14 12.57 184.34 11.74L184.34 11.74Q183.86 12.52 183.31 13.09Q182.76 13.65 182.15 13.65L182.15 13.65Q181.86 13.65 181.58 13.52Q181.31 13.39 181.13 13.12Q180.95 12.85 180.95 12.43L180.95 12.43Q180.95 12.01 181.09 11.46Q181.23 10.90 181.44 10.38Q181.65 9.85 181.88 9.51Q182.10 9.16 182.27 9.16L182.27 9.16Q182.33 9.16 182.48 9.21Q182.64 9.25 182.78 9.34Q182.93 9.42 182.93 9.51L182.93 9.51Q182.79 9.70 182.63 10.06Q182.46 10.42 182.30 10.87Q182.15 11.31 182.04 11.73Q181.94 12.15 181.94 12.45L181.94 12.45Q181.94 12.72 182.06 12.88Q182.18 13.05 182.48 13.05L182.48 13.05Q182.76 13.05 183.11 12.77Q183.47 12.49 183.82 12.06Q184.17 11.63 184.47 11.13L184.47 11.13Q184.52 10.96 184.55 10.79Q184.59 10.62 184.62 10.44L184.62 10.44Q184.67 10.23 184.84 9.95Q185.01 9.67 185.39 9.67L185.39 9.67Q185.46 9.67 185.54 9.68Q185.61 9.69 185.70 9.72L185.70 9.72Q185.70 9.96 185.56 10.61Q185.42 11.26 185.15 12.13Q184.89 13.00 184.53 13.92L184.53 13.92Q185.24 13.65 185.91 13.03Q186.59 12.40 187.01 11.37L187.01 11.37L187.20 11.52Q186.98 12.24 186.52 12.77Q186.06 13.30 185.49 13.69Q184.92 14.07 184.37 14.32L184.37 14.32Q183.98 15.28 183.52 16.13Q183.06 16.96 182.56 17.48Q182.06 18 181.53 18ZM181.46 17.52L181.46 17.52Q181.68 17.52 182.21 16.93Q182.75 16.33 183.35 14.85L183.35 14.85Q182.73 15.18 182.21 15.50Q181.68 15.82 181.37 16.20Q181.05 16.57 181.05 17.07L181.05 17.07Q181.05 17.19 181.14 17.35Q181.23 17.52 181.46 17.52ZM192.97 14.25L192.97 14.25Q192.32 14.25 192.04 13.81Q191.77 13.36 191.77 12.70L191.77 12.70Q191.77 11.98 192.04 10.99Q192.31 10.00 192.75 8.91Q193.19 7.81 193.72 6.77Q194.24 5.73 194.77 4.88Q195.29 4.02 195.73 3.51Q196.18 3 196.43 3L196.43 3Q196.60 3 196.70 3.19Q196.81 3.38 196.87 3.64Q196.93 3.90 196.93 4.11L196.93 4.11Q196.93 4.51 196.72 5.17Q196.52 5.82 196.15 6.62Q195.79 7.42 195.28 8.24Q194.78 9.06 194.19 9.81Q193.60 10.56 192.94 11.10L192.94 11.10Q192.85 11.50 192.79 11.89Q192.74 12.27 192.74 12.61L192.74 12.61Q192.74 13.20 192.91 13.48Q193.07 13.77 193.40 13.77L193.40 13.77Q193.81 13.77 194.20 13.41Q194.60 13.05 194.95 12.50Q195.31 11.95 195.56 11.37L195.56 11.37L195.79 11.49Q195.19 12.76 194.48 13.51Q193.78 14.25 192.97 14.25ZM193.07 10.59L193.07 10.59Q193.60 10.06 194.09 9.38Q194.59 8.70 195.01 7.96Q195.44 7.23 195.77 6.54Q196.10 5.85 196.28 5.30Q196.46 4.75 196.46 4.46L196.46 4.46Q196.46 4.30 196.42 4.26Q196.39 4.21 196.36 4.21L196.36 4.21Q196.24 4.21 195.94 4.60Q195.65 4.98 195.26 5.63Q194.87 6.27 194.47 7.09Q194.06 7.92 193.69 8.82Q193.33 9.72 193.07 10.59ZM201.88 14.46L201.88 14.46Q200.97 14.46 200.51 13.96Q200.05 13.45 200.05 12.72L200.05 12.72Q200.05 12.04 200.39 11.29Q200.73 10.54 201.29 9.88Q201.85 9.22 202.53 8.81Q203.20 8.40 203.86 8.40L203.86 8.40Q204.21 8.40 204.50 8.58Q204.79 8.76 204.79 9.31L204.79 9.31Q204.79 9.88 204.45 10.39Q204.12 10.89 203.57 11.28Q203.02 11.67 202.37 11.92Q201.72 12.16 201.07 12.22L201.07 12.22Q201.04 12.37 201.03 12.51Q201.01 12.64 201.01 12.76L201.01 12.76Q201.01 12.99 201.06 13.21Q201.12 13.44 201.25 13.63Q201.39 13.81 201.62 13.92Q201.85 14.02 202.20 14.02L202.20 14.02Q202.84 14.02 203.47 13.66Q204.10 13.29 204.64 12.69Q205.18 12.09 205.56 11.37L205.56 11.37L205.74 11.50Q205.33 12.40 204.71 13.06Q204.09 13.72 203.36 14.09Q202.63 14.46 201.88 14.46ZM201.15 11.94L201.15 11.94Q201.55 11.80 202.06 11.54Q202.57 11.28 203.04 10.92Q203.52 10.56 203.82 10.13Q204.13 9.69 204.13 9.21L204.13 9.21Q204.13 9.04 204.07 8.95Q204.01 8.86 203.82 8.86L203.82 8.86Q203.46 8.86 203.05 9.14Q202.65 9.42 202.27 9.87Q201.90 10.32 201.60 10.86Q201.30 11.40 201.15 11.94Z"
                        transform="translate(0, 0)" />
                </g>
            </svg></g>
        <g><svg xmlns="http://www.w3.org/2000/svg" data-layer-type="text" y="350"
                viewBox="1.0800000429153442 8.029999732971191 91.91999816894531 26.060001373291016" x="247"
                height="26.060001373291016" width="91.91999816894531" style="position: absolute;">
                <g data-horizontal-grow="center"
                    style="fill: rgb(43, 69, 112); font-size: 36px; font-weight: 500; font-style: normal; font-family: Ubuntu; text-transform: uppercase; letter-spacing: 0.222222em; fill-opacity: 1;">
                    <path
                        d="M9.04 30.17L9.04 30.17Q11.48 30.17 12.60 29.34Q13.72 28.51 13.72 27.00L13.72 27.00Q13.72 26.10 13.34 25.45Q12.96 24.80 12.26 24.28Q11.56 23.76 10.55 23.31Q9.54 22.86 8.24 22.43L8.24 22.43Q6.95 21.96 5.74 21.40Q4.54 20.84 3.62 20.02Q2.70 19.19 2.14 18.04Q1.58 16.88 1.58 15.26L1.58 15.26Q1.58 11.88 3.92 9.95Q6.26 8.03 10.30 8.03L10.30 8.03Q12.64 8.03 14.45 8.55Q16.27 9.07 17.32 9.68L17.32 9.68L15.91 13.36Q14.69 12.67 13.23 12.31Q11.77 11.95 10.22 11.95L10.22 11.95Q8.39 11.95 7.36 12.71Q6.34 13.46 6.34 14.83L6.34 14.83Q6.34 15.66 6.68 16.25Q7.02 16.85 7.65 17.32Q8.28 17.78 9.13 18.18Q9.97 18.58 10.98 18.94L10.98 18.94Q12.74 19.58 14.13 20.25Q15.52 20.92 16.47 21.83Q17.42 22.75 17.93 23.99Q18.43 25.24 18.43 27.00L18.43 27.00Q18.43 30.38 16.04 32.24Q13.64 34.09 9.04 34.09L9.04 34.09Q7.49 34.09 6.21 33.89Q4.93 33.70 3.94 33.41Q2.95 33.12 2.23 32.81Q1.51 32.51 1.08 32.26L1.08 32.26L2.41 28.55Q3.38 29.09 5.04 29.63Q6.70 30.17 9.04 30.17ZM28.99 26.93L28.99 26.93Q28.99 25.56 29.40 24.44Q29.82 23.33 30.52 22.43Q31.22 21.53 32.14 20.84Q33.06 20.16 34.06 19.62L34.06 19.62Q32.98 18.47 32.32 17.17Q31.65 15.88 31.65 14.44L31.65 14.44Q31.65 11.41 33.51 9.72Q35.36 8.03 38.38 8.03L38.38 8.03Q39.93 8.03 41.14 8.46Q42.34 8.89 43.14 9.65Q43.93 10.40 44.34 11.43Q44.76 12.46 44.76 13.61L44.76 13.61Q44.76 14.76 44.38 15.77Q44 16.78 43.35 17.62Q42.70 18.47 41.86 19.17Q41.01 19.87 40.04 20.41L40.04 20.41L44.97 25.38Q45.48 24.44 45.80 23.27Q46.12 22.10 46.30 20.99L46.30 20.99L49.94 21.46Q49.76 22.90 49.18 24.64Q48.61 26.39 47.67 27.97L47.67 27.97Q48.86 29.30 49.96 30.73Q51.06 32.15 51.78 33.55L51.78 33.55L47.24 33.55Q46.88 32.94 46.32 32.22Q45.76 31.50 45.15 30.89L45.15 30.89Q43.68 32.22 41.77 33.05Q39.86 33.88 37.45 33.88L37.45 33.88Q35.04 33.88 33.42 33.23Q31.80 32.58 30.81 31.57Q29.82 30.56 29.40 29.34Q28.99 28.12 28.99 26.93ZM33.16 26.64L33.16 26.64Q33.16 27.25 33.40 27.90Q33.63 28.55 34.15 29.11Q34.68 29.66 35.52 30.02Q36.37 30.38 37.56 30.38L37.56 30.38Q39.18 30.38 40.49 29.88Q41.80 29.38 42.74 28.44L42.74 28.44L36.40 22.00Q35.86 22.28 35.29 22.68Q34.71 23.08 34.24 23.63Q33.78 24.19 33.47 24.93Q33.16 25.67 33.16 26.64ZM40.98 13.79L40.98 13.79Q40.98 12.74 40.29 12.01Q39.61 11.27 38.31 11.27L38.31 11.27Q36.94 11.27 36.22 12.10Q35.50 12.92 35.50 14.18L35.50 14.18Q35.50 15.23 36.08 16.25Q36.66 17.28 37.66 18.22L37.66 18.22Q38.35 17.86 38.94 17.42Q39.54 16.99 39.99 16.45Q40.44 15.91 40.71 15.26Q40.98 14.62 40.98 13.79ZM75.15 11.41L79.04 11.41Q79.61 13.36 80.26 15.46Q80.91 17.57 81.61 19.67Q82.31 21.78 83.01 23.81Q83.72 25.85 84.36 27.65L84.36 27.65Q84.90 25.70 85.41 23.42Q85.91 21.13 86.42 18.67Q86.92 16.20 87.41 13.64Q87.89 11.09 88.32 8.60L88.32 8.60L93.00 8.60Q91.74 15.37 90.20 21.62Q88.65 27.86 86.74 33.55L86.74 33.55L82.42 33.55Q79.61 26.28 76.98 17.68L76.98 17.68Q75.65 22.03 74.28 25.96Q72.92 29.88 71.55 33.55L71.55 33.55L67.23 33.55Q65.28 27.86 63.75 21.62Q62.22 15.37 60.96 8.60L60.96 8.60L65.82 8.60Q66.26 11.05 66.74 13.61Q67.23 16.16 67.75 18.63Q68.27 21.10 68.81 23.40Q69.35 25.70 69.89 27.65L69.89 27.65Q70.58 25.81 71.28 23.78Q71.98 21.74 72.66 19.64Q73.35 17.53 73.98 15.44Q74.61 13.36 75.15 11.41L75.15 11.41Z"
                        transform="translate(0, 0)" />
                </g>
            </svg></g>
    </svg>
</svg>